<svg width="607" height="187" viewBox="0 0 607 187" fill="none" xmlns="http://www.w3.org/2000/svg">
<path d="M233.028 40.7071C233.028 64.5867 215.892 78.049 191.868 78.049H172.328V114.59H144.461V6.16992H191.147C218.694 6.16992 233.028 19.2316 233.028 40.7071ZM190.506 55.9324C201.317 55.9324 206.682 50.7237 206.682 41.9091C206.682 33.4151 201.317 28.6872 190.506 28.6872H172.328V56.0125H190.506V55.9324Z" fill="#444BFF"/>
<path d="M313.028 71.3981V114.59H287.323V108.58C281.958 113.388 275.631 116.112 264.981 116.112C250.326 116.112 237.994 107.939 237.994 93.114C237.994 77.2478 252.008 69.0742 268.184 69.0742C275.711 69.0742 281.157 70.2762 285.321 72.0391V71.8789C285.321 61.0609 278.995 57.8556 271.467 57.8556C264.5 57.8556 260.096 61.0609 256.813 64.5066L241.838 49.5218C247.524 42.7105 258.975 34.6973 275.872 34.6973C297.173 34.6973 313.028 44.2331 313.028 71.3981ZM275.231 100.086C279.715 100.086 282.438 98.8836 285.241 96.5598V85.7418C282.198 84.059 279.555 83.2577 275.872 83.2577C269.705 83.2577 265.702 86.6233 265.702 91.7518C265.702 96.8002 269.866 100.086 275.231 100.086Z" fill="#444BFF"/>
<path d="M389.583 109.302C384.218 112.988 375.889 115.953 366.921 115.953C349.623 115.953 336.25 107.78 336.25 84.461V59.1391H322.557V37.4231H337.852V15.5469H363.878V37.4231H385.179V59.1391H363.878V81.9769C363.878 89.1889 367.561 91.673 372.846 91.673C376.85 91.673 379.653 90.6313 381.815 89.1889L389.583 109.302Z" fill="#444BFF"/>
<path d="M401.596 25.001V0.640625H429.463V25.001H401.596ZM401.596 114.589V37.5017H429.303V114.589H401.596Z" fill="#444BFF"/>
<path d="M497.61 114.59L481.434 88.0659L476.389 92.0725V114.59H448.682V0H476.389V62.5837L497.049 37.422H530.523L499.212 70.597L531.083 114.51H497.61V114.59Z" fill="#444BFF"/>
<path d="M606.999 71.3981V114.59H581.294V108.58C575.928 113.388 569.602 116.112 558.952 116.112C544.297 116.112 531.965 107.939 531.965 93.114C531.965 77.2478 545.979 69.0742 562.155 69.0742C569.682 69.0742 575.128 70.2762 579.292 72.0391V71.8789C579.292 61.0609 572.965 57.8556 565.438 57.8556C558.471 57.8556 554.067 61.0609 550.783 64.5066L535.809 49.5218C541.494 42.7105 552.946 34.6973 569.842 34.6973C591.143 34.6973 606.999 44.2331 606.999 71.3981ZM569.282 100.086C573.766 100.086 576.489 98.8836 579.292 96.5598V85.7418C576.249 84.059 573.606 83.2577 569.922 83.2577C563.756 83.2577 559.752 86.6233 559.752 91.7518C559.672 96.8002 563.836 100.086 569.282 100.086Z" fill="#444BFF"/>
<path d="M32.1117 78.9305C35.4751 73.8822 50.6901 75.565 62.5418 68.7537C74.3935 62.0225 34.9946 58.0159 34.9946 58.0159C34.9946 58.0159 87.3664 60.7404 87.8468 67.0709C88.4074 73.4014 47.3268 77.4881 54.9343 83.2577C59.9793 87.1041 86.4054 85.0206 103.703 83.2577C107.626 75.7252 109.789 67.151 109.789 58.096C109.789 27.8058 85.2042 3.20508 54.9343 3.20508C24.6644 3.20508 0 27.7257 0 58.0159C0 88.3061 24.5843 112.907 54.8542 112.907C66.6259 112.907 77.5967 109.221 86.4855 102.89C64.3836 99.0439 24.4241 90.3895 32.1117 78.9305Z" fill="#FFC161"/>
<path d="M451.325 186.23C466.008 186.23 477.911 174.319 477.911 159.626C477.911 144.933 466.008 133.021 451.325 133.021C436.641 133.021 424.738 144.933 424.738 159.626C424.738 174.319 436.641 186.23 451.325 186.23Z" fill="#FFC161"/>
<path d="M512.506 133.182H524.999V184.707H514.028V182.383C511.705 184.547 508.742 185.909 504.258 185.909C494.088 185.909 487.121 178.457 487.121 167.398C487.121 156.5 495.049 148.727 504.739 148.727C507.782 148.727 510.264 149.368 512.506 150.49V133.182ZM507.221 175.812C509.303 175.812 511.065 175.171 512.506 174.049V160.827C511.065 159.625 509.383 158.984 507.301 158.984C502.737 158.984 499.613 162.27 499.613 167.398C499.613 172.607 502.737 175.812 507.221 175.812Z" fill="#FFC161"/>
<path d="M543.656 169.964C544.537 174.852 547.58 176.454 551.664 176.454C555.268 176.454 558.311 175.172 560.713 173.089L565.918 180.782C561.754 184.147 556.869 185.99 550.383 185.99C539.172 185.99 531.164 179.499 531.164 167.399C531.164 155.86 539.572 148.809 549.662 148.809C560.393 148.809 566.719 155.78 566.719 166.758C566.719 167.88 566.639 169.082 566.559 169.964H543.656V169.964ZM555.348 163.473C555.028 159.787 552.946 157.944 549.742 157.944C546.619 157.944 544.377 159.466 543.736 163.473H555.348Z" fill="#FFC161"/>
<path d="M593.705 150.09H606.999L594.506 184.787H580.813L568.48 150.09H582.735L587.459 170.764L588.1 174.771L588.66 170.764L593.705 150.09Z" fill="#FFC161"/>
</svg>
